<?xml version="1.0" encoding="UTF-8"?>
<!DOCTYPE svg PUBLIC "-//W3C//DTD SVG 1.1//EN" "http://www.w3.org/Graphics/SVG/1.1/DTD/svg11.dtd">
<svg xmlns="http://www.w3.org/2000/svg" version="1.1" width="500px" height="500px" style="shape-rendering:geometricPrecision; text-rendering:geometricPrecision; image-rendering:optimizeQuality; fill-rule:evenodd; clip-rule:evenodd" xmlns:xlink="http://www.w3.org/1999/xlink">
<g><path style="opacity:1" fill="#fefefe" d="M -0.5,-0.5 C 166.167,-0.5 332.833,-0.5 499.5,-0.5C 499.5,166.167 499.5,332.833 499.5,499.5C 332.833,499.5 166.167,499.5 -0.5,499.5C -0.5,332.833 -0.5,166.167 -0.5,-0.5 Z"/></g>
<g><path style="opacity:1" fill="#efefef" d="M 63.5,212.5 C 66.0384,210.158 68.7051,209.992 71.5,212C 69.2424,214.763 69.7424,217.263 73,219.5C 73.8333,218 75,216.833 76.5,216C 79.2342,215.79 81.7342,214.956 84,213.5C 84.3076,214.308 84.8076,214.975 85.5,215.5C 86.7193,214.737 87.7193,213.737 88.5,212.5C 91.4423,213.819 94.4423,214.985 97.5,216C 95.3208,217.848 93.4874,220.015 92,222.5C 87.317,220.567 82.4837,219.4 77.5,219C 75.6797,219.979 74.513,221.479 74,223.5C 72.6124,222.446 71.1124,222.28 69.5,223C 70.8141,223.985 71.8141,225.152 72.5,226.5C 72.0679,227.71 71.4013,228.71 70.5,229.5C 69.3737,226.473 67.8737,226.14 66,228.5C 65.4604,226.865 65.9604,225.532 67.5,224.5C 64.4883,223.998 62.155,222.498 60.5,220C 59.8333,219.333 59.1667,219.333 58.5,220C 59.2524,220.671 59.5858,221.504 59.5,222.5C 57.965,223.354 56.6316,223.354 55.5,222.5C 55.9175,221.778 56.5842,221.278 57.5,221C 53.9018,220.976 50.5684,221.976 47.5,224C 47.8333,224.333 48.1667,224.667 48.5,225C 47.09,225.368 46.09,226.201 45.5,227.5C 46.5019,229.51 47.5019,231.51 48.5,233.5C 49.1067,233.376 49.44,233.043 49.5,232.5C 50.7375,233.743 50.4041,234.743 48.5,235.5C 44.8688,233.368 41.7022,230.701 39,227.5C 38.3486,225.765 38.5153,224.098 39.5,222.5C 38.5197,221.019 37.353,219.685 36,218.5C 35.3333,217.833 35.3333,217.167 36,216.5C 37.1133,218.329 38.6133,219.163 40.5,219C 38.0953,217.385 38.0953,216.719 40.5,217C 41.6399,218.973 42.9733,220.807 44.5,222.5C 49.8739,220.728 55.2073,218.894 60.5,217C 57.723,215.76 54.8896,214.594 52,213.5C 51.6924,214.308 51.1924,214.975 50.5,215.5C 49.2807,214.737 48.2807,213.737 47.5,212.5C 44.9771,214.408 42.3104,214.741 39.5,213.5C 45.4291,209.677 51.7624,207.177 58.5,206C 56.0038,207.08 53.6705,208.414 51.5,210C 55.447,211.154 59.447,211.987 63.5,212.5 Z"/></g>
<g><path style="opacity:1" fill="#c4c4c4" d="M 55.5,222.5 C 52.4017,222.413 52.0684,222.913 54.5,224C 52.0506,224.725 49.7173,225.725 47.5,227C 48.8613,228.584 49.528,230.418 49.5,232.5C 49.44,233.043 49.1067,233.376 48.5,233.5C 47.5019,231.51 46.5019,229.51 45.5,227.5C 46.09,226.201 47.09,225.368 48.5,225C 48.1667,224.667 47.8333,224.333 47.5,224C 50.5684,221.976 53.9018,220.976 57.5,221C 56.5842,221.278 55.9175,221.778 55.5,222.5 Z"/></g>
<g><path style="opacity:1" fill="#d8d8d8" d="M 72.5,226.5 C 71.8141,225.152 70.8141,223.985 69.5,223C 71.1124,222.28 72.6124,222.446 74,223.5C 74.513,221.479 75.6797,219.979 77.5,219C 82.4837,219.4 87.317,220.567 92,222.5C 93.4874,220.015 95.3208,217.848 97.5,216C 94.4423,214.985 91.4423,213.819 88.5,212.5C 87.7193,213.737 86.7193,214.737 85.5,215.5C 84.8076,214.975 84.3076,214.308 84,213.5C 81.7342,214.956 79.2342,215.79 76.5,216C 75,216.833 73.8333,218 73,219.5C 69.7424,217.263 69.2424,214.763 71.5,212C 68.7051,209.992 66.0384,210.158 63.5,212.5C 63.6273,209.728 65.1273,208.395 68,208.5C 70.725,208.982 72.8917,210.315 74.5,212.5C 77.8333,211.667 81.1667,210.833 84.5,210C 82.3295,208.414 79.9962,207.08 77.5,206C 78,205.833 78.5,205.667 79,205.5C 87.1412,208.098 94.9745,211.265 102.5,215C 100.5,217.667 98.5,220.333 96.5,223C 97.5536,224.388 97.7203,225.888 97,227.5C 95.6667,228.167 94.6667,229.167 94,230.5C 93.9173,227.479 94.584,225.479 96,224.5C 93.2541,223.35 90.4208,222.85 87.5,223C 90.851,226.612 90.851,230.445 87.5,234.5C 86.2947,232.141 86.628,229.974 88.5,228C 86.6525,225.907 84.3192,224.574 81.5,224C 82.1667,223.667 82.8333,223.333 83.5,223C 81.2842,223.363 79.1176,223.196 77,222.5C 75.6238,224.047 74.1238,225.38 72.5,226.5 Z"/></g>
<g><path style="opacity:1" fill="#bfbfbf" d="M 70.5,229.5 C 72.7246,233.235 75.558,236.568 79,239.5C 79.6667,240.167 79.6667,240.833 79,241.5C 78,240.5 77,239.5 76,238.5C 75.6667,239.167 75.3333,239.833 75,240.5C 73.056,236.89 70.7226,233.557 68,230.5C 65.0887,233.99 62.422,237.656 60,241.5C 60.3333,239.833 60.6667,238.167 61,236.5C 56.1667,241.333 51.3333,246.167 46.5,251C 45.8333,251.667 45.1667,251.667 44.5,251C 51.3744,243.958 58.3744,237.125 65.5,230.5C 64.9017,229.205 64.4017,227.872 64,226.5C 61.9812,225.643 60.4812,224.309 59.5,222.5C 59.5858,221.504 59.2524,220.671 58.5,220C 59.1667,219.333 59.8333,219.333 60.5,220C 62.155,222.498 64.4883,223.998 67.5,224.5C 65.9604,225.532 65.4604,226.865 66,228.5C 67.8737,226.14 69.3737,226.473 70.5,229.5 Z"/></g>
<g><path style="opacity:1" fill="#668936" d="M 223.5,249.5 C 214.5,249.5 205.5,249.5 196.5,249.5C 205.496,246.899 214.496,246.899 223.5,249.5 Z"/></g>
<g><path style="opacity:1" fill="#67843f" d="M 263.5,250.5 C 261.735,249.539 259.735,249.205 257.5,249.5C 259.378,247.491 261.544,247.158 264,248.5C 264.692,249.437 264.525,250.103 263.5,250.5 Z"/></g>
<g><path style="opacity:1" fill="#678a36" d="M 298.5,249.5 C 289.5,249.5 280.5,249.5 271.5,249.5C 280.504,246.899 289.504,246.899 298.5,249.5 Z"/></g>
<g><path style="opacity:1" fill="#668937" d="M 376.5,249.5 C 367.5,249.5 358.5,249.5 349.5,249.5C 358.5,246.833 367.5,246.833 376.5,249.5 Z"/></g>
<g><path style="opacity:1" fill="#67843e" d="M 416.5,253.5 C 416.5,252.167 416.5,250.833 416.5,249.5C 405.5,249.5 394.5,249.5 383.5,249.5C 383.5,250.833 383.5,252.167 383.5,253.5C 382.193,251.777 382.193,249.943 383.5,248C 394.5,247.333 405.5,247.333 416.5,248C 417.807,249.943 417.807,251.777 416.5,253.5 Z"/></g>
<g><path style="opacity:1" fill="#678a37" d="M 488.5,249.5 C 479.5,249.5 470.5,249.5 461.5,249.5C 470.5,246.833 479.5,246.833 488.5,249.5 Z"/></g>
<g><path style="opacity:1" fill="#95d839" d="M 180.5,271.5 C 180.415,272.995 181.081,273.995 182.5,274.5C 183.498,266.193 183.831,257.86 183.5,249.5C 184.833,249.5 186.167,249.5 187.5,249.5C 187.5,260.167 187.5,270.833 187.5,281.5C 185.5,281.5 183.5,281.5 181.5,281.5C 180.728,280.306 179.728,279.306 178.5,278.5C 177.92,276.251 176.587,274.585 174.5,273.5C 170.845,268.514 166.845,263.847 162.5,259.5C 162.585,258.005 161.919,257.005 160.5,256.5C 159.502,264.807 159.169,273.14 159.5,281.5C 157.833,281.5 156.167,281.5 154.5,281.5C 154.5,270.5 154.5,259.5 154.5,248.5C 156.857,248.337 159.19,248.503 161.5,249C 167.698,256.691 174.031,264.191 180.5,271.5 Z"/></g>
<g><path style="opacity:1" fill="#96da39" d="M 196.5,249.5 C 205.5,249.5 214.5,249.5 223.5,249.5C 224.833,250.167 225.833,251.167 226.5,252.5C 226.5,262.167 226.5,271.833 226.5,281.5C 224.833,281.5 223.167,281.5 221.5,281.5C 221.5,277.833 221.5,274.167 221.5,270.5C 213.833,270.5 206.167,270.5 198.5,270.5C 198.5,274.167 198.5,277.833 198.5,281.5C 196.833,281.5 195.167,281.5 193.5,281.5C 193.334,271.494 193.5,261.494 194,251.5C 194.708,250.619 195.542,249.953 196.5,249.5 Z"/></g>
<g><path style="opacity:1" fill="#5b7931" d="M 246.5,261.5 C 246.5,261.833 246.5,262.167 246.5,262.5C 243.167,262.5 239.833,262.5 236.5,262.5C 236.5,258.167 236.5,253.833 236.5,249.5C 235.167,249.5 233.833,249.5 232.5,249.5C 232.5,260.167 232.5,270.833 232.5,281.5C 233.833,281.5 235.167,281.5 236.5,281.5C 236.5,276.833 236.5,272.167 236.5,267.5C 240.042,267.187 243.375,267.521 246.5,268.5C 243.5,268.5 240.5,268.5 237.5,268.5C 237.5,273.167 237.5,277.833 237.5,282.5C 235.5,282.5 233.5,282.5 231.5,282.5C 231.333,271.162 231.5,259.828 232,248.5C 233.667,247.167 235.333,247.167 237,248.5C 237.499,252.821 237.666,257.154 237.5,261.5C 240.5,261.5 243.5,261.5 246.5,261.5 Z"/></g>
<g><path style="opacity:1" fill="#99df39" d="M 246.5,262.5 C 246.833,262.5 247.167,262.5 247.5,262.5C 249.842,262.775 249.842,263.608 247.5,265C 251.756,267.723 251.422,268.89 246.5,268.5C 243.375,267.521 240.042,267.187 236.5,267.5C 236.5,272.167 236.5,276.833 236.5,281.5C 235.167,281.5 233.833,281.5 232.5,281.5C 232.5,270.833 232.5,260.167 232.5,249.5C 233.833,249.5 235.167,249.5 236.5,249.5C 236.5,253.833 236.5,258.167 236.5,262.5C 239.833,262.5 243.167,262.5 246.5,262.5 Z"/></g>
<g><path style="opacity:1" fill="#94d639" d="M 271.5,249.5 C 280.5,249.5 289.5,249.5 298.5,249.5C 301.621,250.736 302.955,253.069 302.5,256.5C 299.918,256.975 297.918,256.308 296.5,254.5C 289.018,253.508 281.352,253.175 273.5,253.5C 273.5,256.5 273.5,259.5 273.5,262.5C 279.167,262.5 284.833,262.5 290.5,262.5C 294.721,261.808 298.387,262.808 301.5,265.5C 302.811,269.984 302.811,274.317 301.5,278.5C 300.167,279.167 299.167,280.167 298.5,281.5C 289.161,281.666 279.827,281.5 270.5,281C 269.944,280.617 269.611,280.117 269.5,279.5C 269.5,277.833 269.5,276.167 269.5,274.5C 270.833,274.5 272.167,274.5 273.5,274.5C 280.76,276.465 288.427,277.132 296.5,276.5C 296.5,273.5 296.5,270.5 296.5,267.5C 288.5,267.5 280.5,267.5 272.5,267.5C 271.508,267.672 270.842,267.338 270.5,266.5C 269.608,261.562 269.274,256.562 269.5,251.5C 269.833,250.5 270.5,249.833 271.5,249.5 Z"/></g>
<g><path style="opacity:1" fill="#98dd39" d="M 311.5,249.5 C 311.5,253.833 311.5,258.167 311.5,262.5C 319.5,262.5 327.5,262.5 335.5,262.5C 336.485,258.366 336.818,254.032 336.5,249.5C 337.833,249.5 339.167,249.5 340.5,249.5C 340.5,260.167 340.5,270.833 340.5,281.5C 339.167,281.5 337.833,281.5 336.5,281.5C 336.5,276.833 336.5,272.167 336.5,267.5C 328.167,267.5 319.833,267.5 311.5,267.5C 311.5,272.167 311.5,276.833 311.5,281.5C 310.167,281.5 308.833,281.5 307.5,281.5C 307.5,270.833 307.5,260.167 307.5,249.5C 308.833,249.5 310.167,249.5 311.5,249.5 Z"/></g>
<g><path style="opacity:1" fill="#93d439" d="M 349.5,249.5 C 358.5,249.5 367.5,249.5 376.5,249.5C 378.173,250.343 379.34,251.676 380,253.5C 380.5,262.827 380.666,272.161 380.5,281.5C 378.5,281.5 376.5,281.5 374.5,281.5C 374.5,277.833 374.5,274.167 374.5,270.5C 366.833,270.5 359.167,270.5 351.5,270.5C 351.5,274.167 351.5,277.833 351.5,281.5C 349.833,281.5 348.167,281.5 346.5,281.5C 346.334,271.161 346.5,260.828 347,250.5C 347.671,249.748 348.504,249.414 349.5,249.5 Z"/></g>
<g><path style="opacity:1" fill="#98dd39" d="M 416.5,253.5 C 411.833,253.5 407.167,253.5 402.5,253.5C 402.5,262.833 402.5,272.167 402.5,281.5C 400.833,281.5 399.167,281.5 397.5,281.5C 397.5,272.167 397.5,262.833 397.5,253.5C 392.833,253.5 388.167,253.5 383.5,253.5C 383.5,252.167 383.5,250.833 383.5,249.5C 394.5,249.5 405.5,249.5 416.5,249.5C 416.5,250.833 416.5,252.167 416.5,253.5 Z"/></g>
<g><path style="opacity:1" fill="#66853b" d="M 450.5,249.5 C 440.5,249.5 430.5,249.5 420.5,249.5C 420.5,260.167 420.5,270.833 420.5,281.5C 421.833,281.5 423.167,281.5 424.5,281.5C 424.185,277.629 424.518,273.962 425.5,270.5C 425.5,274.5 425.5,278.5 425.5,282.5C 423.5,282.5 421.5,282.5 419.5,282.5C 419.333,271.162 419.5,259.828 420,248.5C 430.308,247.111 440.475,247.444 450.5,249.5 Z"/></g>
<g><path style="opacity:1" fill="#91d238" d="M 450.5,249.5 C 450.783,250.289 451.283,250.956 452,251.5C 452.499,256.823 452.666,262.156 452.5,267.5C 451.5,267.833 450.833,268.5 450.5,269.5C 448.396,269.201 446.396,269.534 444.5,270.5C 444.624,271.107 444.957,271.44 445.5,271.5C 448.384,274.239 451.051,277.239 453.5,280.5C 451.167,281.833 448.833,281.833 446.5,280.5C 443.655,277.156 440.655,273.989 437.5,271C 433.514,270.501 429.514,270.334 425.5,270.5C 424.518,273.962 424.185,277.629 424.5,281.5C 423.167,281.5 421.833,281.5 420.5,281.5C 420.5,270.833 420.5,260.167 420.5,249.5C 430.5,249.5 440.5,249.5 450.5,249.5 Z"/></g>
<g><path style="opacity:1" fill="#91d337" d="M 461.5,249.5 C 470.5,249.5 479.5,249.5 488.5,249.5C 490.113,249.944 491.28,250.944 492,252.5C 492.5,262.161 492.666,271.828 492.5,281.5C 490.5,281.5 488.5,281.5 486.5,281.5C 486.5,277.833 486.5,274.167 486.5,270.5C 478.833,270.5 471.167,270.5 463.5,270.5C 463.5,274.167 463.5,277.833 463.5,281.5C 461.833,281.5 460.167,281.5 458.5,281.5C 458.334,271.828 458.5,262.161 459,252.5C 460.045,251.627 460.878,250.627 461.5,249.5 Z"/></g>
<g><path style="opacity:1" fill="#5d812d" d="M 181.5,281.5 C 183.5,281.5 185.5,281.5 187.5,281.5C 187.5,270.833 187.5,260.167 187.5,249.5C 186.167,249.5 184.833,249.5 183.5,249.5C 183.831,257.86 183.498,266.193 182.5,274.5C 181.081,273.995 180.415,272.995 180.5,271.5C 181.117,271.611 181.617,271.944 182,272.5C 182.333,264.5 182.667,256.5 183,248.5C 184.699,247.594 186.533,247.261 188.5,247.5C 188.5,259.167 188.5,270.833 188.5,282.5C 185.941,282.802 183.607,282.468 181.5,281.5 Z"/></g>
<g><path style="opacity:1" fill="#5d822a" d="M 341.5,281.5 C 341.167,281.5 340.833,281.5 340.5,281.5C 340.5,270.833 340.5,260.167 340.5,249.5C 339.167,249.5 337.833,249.5 336.5,249.5C 336.818,254.032 336.485,258.366 335.5,262.5C 335.5,262.167 335.5,261.833 335.5,261.5C 335.334,257.154 335.501,252.821 336,248.5C 337.699,247.594 339.533,247.261 341.5,247.5C 341.5,258.833 341.5,270.167 341.5,281.5 Z"/></g>
<g><path style="opacity:1" fill="#516c2d" d="M 221.5,256.5 C 214.444,254.59 207.111,253.924 199.5,254.5C 199.5,257.833 199.5,261.167 199.5,264.5C 206.833,264.5 214.167,264.5 221.5,264.5C 214.018,265.492 206.352,265.825 198.5,265.5C 198.5,261.5 198.5,257.5 198.5,253.5C 206.167,253.5 213.833,253.5 221.5,253.5C 221.5,254.5 221.5,255.5 221.5,256.5 Z"/></g>
<g><path style="opacity:1" fill="#526f2b" d="M 374.5,254.5 C 366.981,254.175 359.648,254.508 352.5,255.5C 352.5,258.167 352.5,260.833 352.5,263.5C 359.648,264.492 366.981,264.825 374.5,264.5C 367.018,265.492 359.352,265.825 351.5,265.5C 351.5,261.5 351.5,257.5 351.5,253.5C 359.352,253.175 367.018,253.508 374.5,254.5 Z"/></g>
<g><path style="opacity:1" fill="#587530" d="M 463.5,254.5 C 470.982,253.508 478.648,253.175 486.5,253.5C 486.5,257.5 486.5,261.5 486.5,265.5C 478.648,265.825 470.982,265.492 463.5,264.5C 471.019,264.825 478.352,264.492 485.5,263.5C 485.5,260.5 485.5,257.5 485.5,254.5C 478.5,254.5 471.5,254.5 464.5,254.5C 464.167,254.5 463.833,254.5 463.5,254.5 Z"/></g>
<g><path style="opacity:1" fill="#f4f4f3" d="M 221.5,256.5 C 221.5,259.167 221.5,261.833 221.5,264.5C 214.167,264.5 206.833,264.5 199.5,264.5C 199.5,261.167 199.5,257.833 199.5,254.5C 207.111,253.924 214.444,254.59 221.5,256.5 Z"/></g>
<g><path style="opacity:1" fill="#fefefe" d="M 352.5,255.5 C 359.5,255.5 366.5,255.5 373.5,255.5C 373.5,258.167 373.5,260.833 373.5,263.5C 366.5,263.5 359.5,263.5 352.5,263.5C 352.5,260.833 352.5,258.167 352.5,255.5 Z"/></g>
<g><path style="opacity:1" fill="#5c6d46" d="M 383.5,253.5 C 388.167,253.5 392.833,253.5 397.5,253.5C 397.5,262.833 397.5,272.167 397.5,281.5C 396.507,272.682 396.173,263.682 396.5,254.5C 391.968,254.818 387.634,254.485 383.5,253.5 Z"/></g>
<g><path style="opacity:1" fill="#f4f4f4" d="M 425.5,254.5 C 432.833,254.5 440.167,254.5 447.5,254.5C 447.5,257.833 447.5,261.167 447.5,264.5C 440.167,264.5 432.833,264.5 425.5,264.5C 425.5,261.167 425.5,257.833 425.5,254.5 Z"/></g>
<g><path style="opacity:1" fill="#fbfbfb" d="M 464.5,254.5 C 471.5,254.5 478.5,254.5 485.5,254.5C 485.5,257.5 485.5,260.5 485.5,263.5C 478.5,263.5 471.5,263.5 464.5,263.5C 464.5,260.5 464.5,257.5 464.5,254.5 Z"/></g>
<g><path style="opacity:1" fill="#859372" d="M 416.5,253.5 C 412.366,254.485 408.032,254.818 403.5,254.5C 403.827,263.682 403.493,272.682 402.5,281.5C 402.5,272.167 402.5,262.833 402.5,253.5C 407.167,253.5 411.833,253.5 416.5,253.5 Z"/></g>
<g><path style="opacity:1" fill="#8e8e8d" d="M 105.5,267.5 C 105.389,268.117 105.056,268.617 104.5,269C 108.833,273.333 113.167,277.667 117.5,282C 116.906,282.464 116.239,282.631 115.5,282.5C 111.5,279.5 107.5,276.5 103.5,273.5C 103.167,272.5 102.5,271.833 101.5,271.5C 100.833,271.167 100.167,270.833 99.5,270.5C 99.1667,269.5 98.5,268.833 97.5,268.5C 97.5,266.833 97.5,265.167 97.5,263.5C 96.0413,263.433 94.7079,263.766 93.5,264.5C 92.5,264.5 91.5,264.5 90.5,264.5C 90.5,263.833 90.5,263.167 90.5,262.5C 92.1401,261.68 93.8068,260.847 95.5,260C 91.912,257.623 88.412,255.123 85,252.5C 84.6667,252.833 84.3333,253.167 84,253.5C 83.059,251.939 81.8924,250.605 80.5,249.5C 76.5565,251.388 72.7232,253.388 69,255.5C 68.3333,256.167 68.3333,256.833 69,257.5C 71.1238,258.622 72.9571,260.122 74.5,262C 72.1827,263.713 70.1827,263.213 68.5,260.5C 66.8287,262.51 66.162,264.843 66.5,267.5C 66.369,268.239 66.5357,268.906 67,269.5C 70.7713,272.959 74.6046,276.292 78.5,279.5C 79.1667,280.833 80.1667,281.833 81.5,282.5C 81.5,282.833 81.5,283.167 81.5,283.5C 75.2341,279.237 69.5674,274.237 64.5,268.5C 64.5,266.833 64.5,265.167 64.5,263.5C 64.9382,263.565 65.2716,263.399 65.5,263C 62.7091,261.886 59.7091,261.72 56.5,262.5C 58.6185,260.61 58.1185,258.943 55,257.5C 52.6101,258.278 50.4434,259.445 48.5,261C 50.0581,261.21 51.3915,261.71 52.5,262.5C 49.0977,262.658 45.7644,262.324 42.5,261.5C 46.2446,258.271 50.4113,255.604 55,253.5C 57.9883,255.49 60.6549,257.823 63,260.5C 63.0929,257.993 63.9262,255.826 65.5,254C 69.7453,251.961 73.912,249.794 78,247.5C 78,246.167 78,244.833 78,243.5C 84.606,249.439 91.7727,254.605 99.5,259C 100.913,262.246 102.913,265.08 105.5,267.5 Z"/></g>
<g><path style="opacity:1" fill="#f7f7f7" d="M 56.5,262.5 C 55.1667,262.5 53.8333,262.5 52.5,262.5C 51.3915,261.71 50.0581,261.21 48.5,261C 50.4434,259.445 52.6101,258.278 55,257.5C 58.1185,258.943 58.6185,260.61 56.5,262.5 Z"/></g>
<g><path style="opacity:1" fill="#f3f4f3" d="M 90.5,262.5 C 85.3054,262.179 80.3054,262.513 75.5,263.5C 74.8333,263.5 74.5,263.833 74.5,264.5C 71.6733,265.108 69.0067,266.108 66.5,267.5C 66.162,264.843 66.8287,262.51 68.5,260.5C 70.1827,263.213 72.1827,263.713 74.5,262C 72.9571,260.122 71.1238,258.622 69,257.5C 68.3333,256.833 68.3333,256.167 69,255.5C 72.7232,253.388 76.5565,251.388 80.5,249.5C 81.8924,250.605 83.059,251.939 84,253.5C 84.3333,253.167 84.6667,252.833 85,252.5C 88.412,255.123 91.912,257.623 95.5,260C 93.8068,260.847 92.1401,261.68 90.5,262.5 Z"/></g>
<g><path style="opacity:1" fill="#90d039" d="M 257.5,249.5 C 259.735,249.205 261.735,249.539 263.5,250.5C 258.974,254.863 254.974,259.697 251.5,265C 255.472,270.426 259.805,275.593 264.5,280.5C 261.205,281.915 258.205,281.581 255.5,279.5C 255.573,277.973 254.906,276.973 253.5,276.5C 251.167,273.833 248.833,271.167 246.5,268.5C 251.422,268.89 251.756,267.723 247.5,265C 249.842,263.608 249.842,262.775 247.5,262.5C 248.925,261.078 249.925,259.411 250.5,257.5C 252.146,254.19 254.48,251.523 257.5,249.5 Z"/></g>
<g><path style="opacity:1" fill="#70973b" d="M 269.5,251.5 C 269.274,256.562 269.608,261.562 270.5,266.5C 268.14,264.089 267.14,261.089 267.5,257.5C 267.667,255.833 267.833,254.167 268,252.5C 268.383,251.944 268.883,251.611 269.5,251.5 Z"/></g>
<g><path style="opacity:1" fill="#6e8c43" d="M 162.5,259.5 C 161.883,259.389 161.383,259.056 161,258.5C 160.829,266.344 160.329,274.011 159.5,281.5C 159.169,273.14 159.502,264.807 160.5,256.5C 161.919,257.005 162.585,258.005 162.5,259.5 Z"/></g>
<g><path style="opacity:1" fill="#74a82c" d="M 311.5,248.5 C 311.5,248.833 311.5,249.167 311.5,249.5C 310.167,249.5 308.833,249.5 307.5,249.5C 307.5,260.167 307.5,270.833 307.5,281.5C 307.167,281.5 306.833,281.5 306.5,281.5C 306.5,270.5 306.5,259.5 306.5,248.5C 308.167,248.5 309.833,248.5 311.5,248.5 Z"/></g>
<g><path style="opacity:1" fill="#73983f" d="M 250.5,257.5 C 249.925,259.411 248.925,261.078 247.5,262.5C 247.167,262.5 246.833,262.5 246.5,262.5C 246.5,262.167 246.5,261.833 246.5,261.5C 247.5,259.833 248.833,258.5 250.5,257.5 Z"/></g>
<g><path style="opacity:1" fill="#74845c" d="M 296.5,254.5 C 289.167,254.5 281.833,254.5 274.5,254.5C 274.5,256.833 274.5,259.167 274.5,261.5C 280.026,261.179 285.36,261.512 290.5,262.5C 284.833,262.5 279.167,262.5 273.5,262.5C 273.5,259.5 273.5,256.5 273.5,253.5C 281.352,253.175 289.018,253.508 296.5,254.5 Z"/></g>
<g><path style="opacity:1" fill="#849073" d="M 311.5,248.5 C 312.485,252.634 312.818,256.968 312.5,261.5C 320.167,261.5 327.833,261.5 335.5,261.5C 335.5,261.833 335.5,262.167 335.5,262.5C 327.5,262.5 319.5,262.5 311.5,262.5C 311.5,258.167 311.5,253.833 311.5,249.5C 311.5,249.167 311.5,248.833 311.5,248.5 Z"/></g>
<g><path style="opacity:1" fill="#ace890" d="M 75.5,263.5 C 80.3054,262.513 85.3054,262.179 90.5,262.5C 90.5,263.167 90.5,263.833 90.5,264.5C 88.4208,266.873 85.7541,268.206 82.5,268.5C 84.428,266.526 86.7613,265.026 89.5,264C 84.8452,263.501 80.1785,263.334 75.5,263.5 Z"/></g>
<g><path style="opacity:1" fill="#76e146" d="M 75.5,263.5 C 80.1785,263.334 84.8452,263.501 89.5,264C 86.7613,265.026 84.428,266.526 82.5,268.5C 79.3567,268.031 77.0233,266.364 75.5,263.5 Z"/></g>
<g><path style="opacity:1" fill="#dde2db" d="M 97.5,268.5 C 95.8333,267.5 94.5,266.167 93.5,264.5C 94.7079,263.766 96.0413,263.433 97.5,263.5C 97.5,265.167 97.5,266.833 97.5,268.5 Z"/></g>
<g><path style="opacity:1" fill="#c4c6c2" d="M 352.5,255.5 C 359.648,254.508 366.981,254.175 374.5,254.5C 374.5,257.833 374.5,261.167 374.5,264.5C 366.981,264.825 359.648,264.492 352.5,263.5C 359.5,263.5 366.5,263.5 373.5,263.5C 373.5,260.833 373.5,258.167 373.5,255.5C 366.5,255.5 359.5,255.5 352.5,255.5 Z"/></g>
<g><path style="opacity:1" fill="#77a13c" d="M 450.5,249.5 C 451.496,249.414 452.329,249.748 453,250.5C 453.818,256.349 453.652,262.015 452.5,267.5C 452.666,262.156 452.499,256.823 452,251.5C 451.283,250.956 450.783,250.289 450.5,249.5 Z"/></g>
<g><path style="opacity:1" fill="#b5b7b2" d="M 463.5,254.5 C 463.833,254.5 464.167,254.5 464.5,254.5C 464.5,257.5 464.5,260.5 464.5,263.5C 471.5,263.5 478.5,263.5 485.5,263.5C 478.352,264.492 471.019,264.825 463.5,264.5C 463.5,261.167 463.5,257.833 463.5,254.5 Z"/></g>
<g><path style="opacity:1" fill="#828282" d="M 42.5,261.5 C 42.1692,263.322 41.5025,264.989 40.5,266.5C 40.1667,266.5 39.8333,266.5 39.5,266.5C 37.321,266.84 35.4877,267.84 34,269.5C 33.7216,268.584 33.2216,267.918 32.5,267.5C 31.2617,267.19 31.2617,266.69 32.5,266C 35.741,264.211 39.0743,262.711 42.5,261.5 Z"/></g>
<g><path style="opacity:1" fill="#777879" d="M 64.5,263.5 C 64.5,265.167 64.5,266.833 64.5,268.5C 63.5318,270.607 63.1984,272.941 63.5,275.5C 62.1667,274.833 61.1667,273.833 60.5,272.5C 60.5,270.167 60.5,267.833 60.5,265.5C 61.5137,264.326 62.847,263.66 64.5,263.5 Z"/></g>
<g><path style="opacity:1" fill="#9cc5e1" d="M 42.5,261.5 C 45.7644,262.324 49.0977,262.658 52.5,262.5C 53.8333,262.5 55.1667,262.5 56.5,262.5C 59.7091,261.72 62.7091,261.886 65.5,263C 65.2716,263.399 64.9382,263.565 64.5,263.5C 62.847,263.66 61.5137,264.326 60.5,265.5C 59.1283,266.512 57.795,267.512 56.5,268.5C 55.5,268.5 54.5,268.5 53.5,268.5C 53.5,269.167 53.1667,269.5 52.5,269.5C 50.5,270.167 48.5,270.833 46.5,271.5C 45.0892,269.086 43.0892,267.419 40.5,266.5C 41.5025,264.989 42.1692,263.322 42.5,261.5 Z"/></g>
<g><path style="opacity:1" fill="#64b7ed" d="M 53.5,268.5 C 50.033,268.554 47.3663,267.054 45.5,264C 49.8333,263.333 54.1667,263.333 58.5,264C 56.7605,265.517 55.0938,267.017 53.5,268.5 Z"/></g>
<g><path style="opacity:1" fill="#f7f8f7" d="M 60.5,265.5 C 60.5,267.833 60.5,270.167 60.5,272.5C 58.8333,271.5 57.5,270.167 56.5,268.5C 57.795,267.512 59.1283,266.512 60.5,265.5 Z"/></g>
<g><path style="opacity:1" fill="#75e144" d="M 90.5,264.5 C 91.5,264.5 92.5,264.5 93.5,264.5C 94.5,266.167 95.8333,267.5 97.5,268.5C 97.7852,270.288 97.4519,271.955 96.5,273.5C 91.853,275.799 87.1863,278.132 82.5,280.5C 81.2354,276.454 81.2354,272.454 82.5,268.5C 85.7541,268.206 88.4208,266.873 90.5,264.5 Z"/></g>
<g><path style="opacity:1" fill="#b4c49f" d="M 226.5,252.5 C 227.494,262.319 227.827,272.319 227.5,282.5C 225.265,282.795 223.265,282.461 221.5,281.5C 223.167,281.5 224.833,281.5 226.5,281.5C 226.5,271.833 226.5,262.167 226.5,252.5 Z"/></g>
<g><path style="opacity:1" fill="#475b2a" d="M 461.5,249.5 C 460.878,250.627 460.045,251.627 459,252.5C 458.5,262.161 458.334,271.828 458.5,281.5C 460.167,281.5 461.833,281.5 463.5,281.5C 461.735,282.461 459.735,282.795 457.5,282.5C 457.334,272.161 457.5,261.828 458,251.5C 458.816,250.177 459.983,249.511 461.5,249.5 Z"/></g>
<g><path style="opacity:1" fill="#637a44" d="M 340.5,281.5 C 340.833,281.5 341.167,281.5 341.5,281.5C 339.735,282.461 337.735,282.795 335.5,282.5C 335.5,277.833 335.5,273.167 335.5,268.5C 327.833,268.5 320.167,268.5 312.5,268.5C 312.5,273.167 312.5,277.833 312.5,282.5C 310.265,282.795 308.265,282.461 306.5,281.5C 306.833,281.5 307.167,281.5 307.5,281.5C 308.833,281.5 310.167,281.5 311.5,281.5C 311.5,276.833 311.5,272.167 311.5,267.5C 319.833,267.5 328.167,267.5 336.5,267.5C 336.5,272.167 336.5,276.833 336.5,281.5C 337.833,281.5 339.167,281.5 340.5,281.5 Z"/></g>
<g><path style="opacity:1" fill="#75e045" d="M 74.5,264.5 C 75.7927,266.296 77.2927,267.963 79,269.5C 79.8075,273.027 79.6408,276.36 78.5,279.5C 74.6046,276.292 70.7713,272.959 67,269.5C 66.5357,268.906 66.369,268.239 66.5,267.5C 69.0067,266.108 71.6733,265.108 74.5,264.5 Z"/></g>
<g><path style="opacity:1" fill="#618233" d="M 450.5,269.5 C 448.833,270.167 447.167,270.833 445.5,271.5C 444.957,271.44 444.624,271.107 444.5,270.5C 446.396,269.534 448.396,269.201 450.5,269.5 Z"/></g>
<g><path style="opacity:1" fill="#65b5ea" d="M 39.5,266.5 C 39.8333,266.5 40.1667,266.5 40.5,266.5C 43.0892,267.419 45.0892,269.086 46.5,271.5C 45.8333,271.5 45.5,271.833 45.5,272.5C 44.8333,272.5 44.1667,272.5 43.5,272.5C 41.847,272.66 40.5137,273.326 39.5,274.5C 37.8546,273.521 36.5213,272.188 35.5,270.5C 36.8665,269.16 38.1999,267.827 39.5,266.5 Z"/></g>
<g><path style="opacity:1" fill="#c9ccc5" d="M 221.5,281.5 C 220.521,278.375 220.187,275.042 220.5,271.5C 213.5,271.5 206.5,271.5 199.5,271.5C 199.813,275.042 199.479,278.375 198.5,281.5C 198.5,277.833 198.5,274.167 198.5,270.5C 206.167,270.5 213.833,270.5 221.5,270.5C 221.5,274.167 221.5,277.833 221.5,281.5 Z"/></g>
<g><path style="opacity:1" fill="#bbbfb5" d="M 374.5,281.5 C 373.521,278.375 373.187,275.042 373.5,271.5C 366.5,271.5 359.5,271.5 352.5,271.5C 352.813,275.042 352.479,278.375 351.5,281.5C 351.5,277.833 351.5,274.167 351.5,270.5C 359.167,270.5 366.833,270.5 374.5,270.5C 374.5,274.167 374.5,277.833 374.5,281.5 Z"/></g>
<g><path style="opacity:1" fill="#7ce24d" d="M 99.5,270.5 C 100.167,270.833 100.833,271.167 101.5,271.5C 100.732,275.139 100.066,274.806 99.5,270.5 Z"/></g>
<g><path style="opacity:1" fill="#a2c2d9" d="M 39.5,266.5 C 38.1999,267.827 36.8665,269.16 35.5,270.5C 36.5213,272.188 37.8546,273.521 39.5,274.5C 38.5,275.167 37.5,275.833 36.5,276.5C 35.391,276.557 34.391,276.89 33.5,277.5C 33.1667,277.5 32.8333,277.5 32.5,277.5C 32.5,274.167 32.5,270.833 32.5,267.5C 33.2216,267.918 33.7216,268.584 34,269.5C 35.4877,267.84 37.321,266.84 39.5,266.5 Z"/></g>
<g><path style="opacity:1" fill="#d3ecae" d="M 52.5,269.5 C 51.6586,271.379 51.3253,273.379 51.5,275.5C 49.9468,273.615 47.9468,272.615 45.5,272.5C 45.5,271.833 45.8333,271.5 46.5,271.5C 48.5,270.833 50.5,270.167 52.5,269.5 Z"/></g>
<g><path style="opacity:1" fill="#f3f5f1" d="M 64.5,268.5 C 69.5674,274.237 75.2341,279.237 81.5,283.5C 83.8585,285.529 86.1918,287.529 88.5,289.5C 88.5,289.833 88.5,290.167 88.5,290.5C 88.9528,291.458 89.6195,292.292 90.5,293C 87.4887,292.198 84.4887,292.365 81.5,293.5C 75.1937,287.86 69.1937,281.86 63.5,275.5C 63.1984,272.941 63.5318,270.607 64.5,268.5 Z"/></g>
<g><path style="opacity:1" fill="#6b8f3a" d="M 273.5,273.5 C 273.5,273.833 273.5,274.167 273.5,274.5C 272.167,274.5 270.833,274.5 269.5,274.5C 269.5,276.167 269.5,277.833 269.5,279.5C 267.926,277.898 267.259,275.898 267.5,273.5C 269.5,273.5 271.5,273.5 273.5,273.5 Z"/></g>
<g><path style="opacity:1" fill="#96a281" d="M 174.5,273.5 C 176.587,274.585 177.92,276.251 178.5,278.5C 176.413,277.415 175.08,275.749 174.5,273.5 Z"/></g>
<g><path style="opacity:1" fill="#b3b3b4" d="M 29.5,273.5 C 28.7095,274.401 27.7095,275.068 26.5,275.5C 24.592,271.771 22.592,271.938 20.5,276C 19.8333,276.667 19.1667,276.667 18.5,276C 22.5,272 26.5,268 30.5,264C 31.1667,263.333 31.8333,263.333 32.5,264C 30.316,266.016 28.316,268.183 26.5,270.5C 27.1882,271.855 28.1882,272.855 29.5,273.5 Z"/></g>
<g><path style="opacity:1" fill="#9ee143" d="M 43.5,272.5 C 44.1667,272.5 44.8333,272.5 45.5,272.5C 47.9468,272.615 49.9468,273.615 51.5,275.5C 52.8333,277.5 54.5,279.167 56.5,280.5C 58.1271,282.63 59.9604,284.63 62,286.5C 62.4696,287.577 62.3029,288.577 61.5,289.5C 60.448,289.649 59.448,289.483 58.5,289C 52.9018,283.909 47.9018,278.409 43.5,272.5 Z"/></g>
<g><path style="opacity:1" fill="#7d8b68" d="M 272.5,267.5 C 280.5,267.5 288.5,267.5 296.5,267.5C 296.5,270.5 296.5,273.5 296.5,276.5C 288.427,277.132 280.76,276.465 273.5,274.5C 273.5,274.167 273.5,273.833 273.5,273.5C 280.556,275.41 287.889,276.076 295.5,275.5C 295.5,273.167 295.5,270.833 295.5,268.5C 287.648,268.825 279.982,268.492 272.5,267.5 Z"/></g>
<g><path style="opacity:1" fill="#9edf44" d="M 40.5,274.5 C 47.1667,279.167 52.8333,284.833 57.5,291.5C 56.1266,291.657 54.7932,291.49 53.5,291C 51.2968,288.628 48.9635,286.461 46.5,284.5C 45.287,281.775 43.4536,279.441 41,277.5C 40.5172,276.552 40.3505,275.552 40.5,274.5 Z"/></g>
<g><path style="opacity:1" fill="#8fc2e5" d="M 29.5,273.5 C 30.4972,273.47 31.1639,273.97 31.5,275C 31.0109,276.138 30.6775,277.305 30.5,278.5C 27.1598,280.59 23.4931,281.923 19.5,282.5C 19.1667,282.5 18.8333,282.5 18.5,282.5C 21.1667,280.167 23.8333,277.833 26.5,275.5C 27.7095,275.068 28.7095,274.401 29.5,273.5 Z"/></g>
<g><path style="opacity:1" fill="#d4f0aa" d="M 51.5,275.5 C 53.0936,275.92 54.5936,276.586 56,277.5C 57.3932,276.385 58.8932,275.885 60.5,276C 58.8082,277.307 57.4749,278.807 56.5,280.5C 54.5,279.167 52.8333,277.5 51.5,275.5 Z"/></g>
<g><path style="opacity:1" fill="#c3ecb0" d="M 75.5,263.5 C 77.0233,266.364 79.3567,268.031 82.5,268.5C 81.2354,272.454 81.2354,276.454 82.5,280.5C 87.1863,278.132 91.853,275.799 96.5,273.5C 97.4519,271.955 97.7852,270.288 97.5,268.5C 98.5,268.833 99.1667,269.5 99.5,270.5C 100.066,274.806 100.732,275.139 101.5,271.5C 102.5,271.833 103.167,272.5 103.5,273.5C 103.343,274.873 103.51,276.207 104,277.5C 109.167,282.667 114.333,287.833 119.5,293C 121.5,293.667 123.5,293.667 125.5,293C 122.629,290.297 119.962,287.464 117.5,284.5C 120.661,285.913 123.661,287.58 126.5,289.5C 127.479,291.145 128.812,292.479 130.5,293.5C 129.349,294.731 128.183,294.731 127,293.5C 124.333,294.167 121.667,294.833 119,295.5C 114.399,294.858 109.899,294.191 105.5,293.5C 101.399,294.791 97.3989,294.791 93.5,293.5C 96.8499,293.665 100.183,293.498 103.5,293C 99.3333,288.833 95.1667,284.667 91,280.5C 90.5017,283.817 90.335,287.15 90.5,290.5C 89.8333,290.5 89.1667,290.5 88.5,290.5C 88.5,290.167 88.5,289.833 88.5,289.5C 89.6433,286.024 89.8099,282.358 89,278.5C 86.4862,280.004 83.9862,281.338 81.5,282.5C 80.1667,281.833 79.1667,280.833 78.5,279.5C 79.6408,276.36 79.8075,273.027 79,269.5C 77.2927,267.963 75.7927,266.296 74.5,264.5C 74.5,263.833 74.8333,263.5 75.5,263.5 Z"/></g>
<g><path style="opacity:1" fill="#8d9c75" d="M 253.5,276.5 C 254.906,276.973 255.573,277.973 255.5,279.5C 254.094,279.027 253.427,278.027 253.5,276.5 Z"/></g>
<g><path style="opacity:1" fill="#dcf2ba" d="M 32.5,277.5 C 32.8333,277.5 33.1667,277.5 33.5,277.5C 33.3351,283.528 35.3351,288.528 39.5,292.5C 39.1667,292.5 38.8333,292.5 38.5,292.5C 37.2058,291.71 36.0391,290.71 35,289.5C 34.3103,291.35 33.1436,292.684 31.5,293.5C 30.8333,293.5 30.5,293.167 30.5,292.5C 31.172,291.733 32.0053,291.066 33,290.5C 33.6667,287.5 33.6667,284.5 33,281.5C 30.3413,283.246 27.508,284.58 24.5,285.5C 26.428,283.526 28.7613,282.026 31.5,281C 32.5981,280.23 32.5981,279.397 31.5,278.5C 32.1667,278.5 32.5,278.167 32.5,277.5 Z"/></g>
<g><path style="opacity:1" fill="#d0eda5" d="M 39.5,274.5 C 39.8333,274.5 40.1667,274.5 40.5,274.5C 40.3505,275.552 40.5172,276.552 41,277.5C 43.4536,279.441 45.287,281.775 46.5,284.5C 43.3975,281.382 40.0642,278.715 36.5,276.5C 37.5,275.833 38.5,275.167 39.5,274.5 Z"/></g>
<g><path style="opacity:1" fill="#9fe242" d="M 53.5,268.5 C 54.5,268.5 55.5,268.5 56.5,268.5C 57.5,270.167 58.8333,271.5 60.5,272.5C 61.1667,273.833 62.1667,274.833 63.5,275.5C 69.1937,281.86 75.1937,287.86 81.5,293.5C 75.8333,293.5 70.1667,293.5 64.5,293.5C 65.1463,287.143 62.4796,282.81 56.5,280.5C 57.4749,278.807 58.8082,277.307 60.5,276C 58.8932,275.885 57.3932,276.385 56,277.5C 54.5936,276.586 53.0936,275.92 51.5,275.5C 51.3253,273.379 51.6586,271.379 52.5,269.5C 53.1667,269.5 53.5,269.167 53.5,268.5 Z"/></g>
<g><path style="opacity:1" fill="#d8f2b2" d="M 56.5,280.5 C 62.4796,282.81 65.1463,287.143 64.5,293.5C 64.1667,293.5 63.8333,293.5 63.5,293.5C 63.8432,291.517 63.1765,290.183 61.5,289.5C 62.3029,288.577 62.4696,287.577 62,286.5C 59.9604,284.63 58.1271,282.63 56.5,280.5 Z"/></g>
<g><path style="opacity:1" fill="#c9cbc9" d="M 105.5,267.5 C 113.202,274.201 120.202,281.534 126.5,289.5C 123.661,287.58 120.661,285.913 117.5,284.5C 116.5,284.167 115.833,283.5 115.5,282.5C 116.239,282.631 116.906,282.464 117.5,282C 113.167,277.667 108.833,273.333 104.5,269C 105.056,268.617 105.389,268.117 105.5,267.5 Z"/></g>
<g><path style="opacity:1" fill="#81906b" d="M 301.5,278.5 C 301.5,280.5 300.5,281.5 298.5,281.5C 299.167,280.167 300.167,279.167 301.5,278.5 Z"/></g>
<g><path style="opacity:1" fill="#a2e04d" d="M 30.5,278.5 C 30.8333,278.5 31.1667,278.5 31.5,278.5C 32.5981,279.397 32.5981,280.23 31.5,281C 28.7613,282.026 26.428,283.526 24.5,285.5C 23.3052,285.678 22.1385,286.011 21,286.5C 19.2509,286.252 18.4176,285.252 18.5,283.5C 19.1667,283.5 19.5,283.167 19.5,282.5C 23.4931,281.923 27.1598,280.59 30.5,278.5 Z"/></g>
<g><path style="opacity:1" fill="#76df47" d="M 88.5,289.5 C 86.1918,287.529 83.8585,285.529 81.5,283.5C 81.5,283.167 81.5,282.833 81.5,282.5C 83.9862,281.338 86.4862,280.004 89,278.5C 89.8099,282.358 89.6433,286.024 88.5,289.5 Z"/></g>
<g><path style="opacity:1" fill="#909596" d="M 18.5,282.5 C 18.8333,282.5 19.1667,282.5 19.5,282.5C 19.5,283.167 19.1667,283.5 18.5,283.5C 17.0048,283.989 15.6715,284.655 14.5,285.5C 14.1667,285.5 13.8333,285.5 13.5,285.5C 13.5,284.167 12.8333,283.5 11.5,283.5C 12.1451,282.188 13.1451,281.188 14.5,280.5C 15.6223,281.63 16.9557,282.297 18.5,282.5 Z"/></g>
<g><path style="opacity:1" fill="#9fe340" d="M 36.5,276.5 C 40.0642,278.715 43.3975,281.382 46.5,284.5C 48.0941,287.764 50.4275,290.431 53.5,292.5C 48.8333,293.833 44.1667,293.833 39.5,292.5C 35.3351,288.528 33.3351,283.528 33.5,277.5C 34.391,276.89 35.391,276.557 36.5,276.5 Z"/></g>
<g><path style="opacity:1" fill="#76e146" d="M 93.5,293.5 C 93.5,292.833 93.1667,292.5 92.5,292.5C 91.5,292.167 90.8333,291.5 90.5,290.5C 90.335,287.15 90.5017,283.817 91,280.5C 95.1667,284.667 99.3333,288.833 103.5,293C 100.183,293.498 96.8499,293.665 93.5,293.5 Z"/></g>
<g><path style="opacity:1" fill="#a1e446" d="M 13.5,285.5 C 13.8333,285.5 14.1667,285.5 14.5,285.5C 18.9939,286.159 20.6605,288.825 19.5,293.5C 15.6049,292.607 12.9382,290.274 11.5,286.5C 12.1667,286.167 12.8333,285.833 13.5,285.5 Z"/></g>
<g><path style="opacity:1" fill="#74e144" d="M 103.5,273.5 C 107.5,276.5 111.5,279.5 115.5,282.5C 115.833,283.5 116.5,284.167 117.5,284.5C 119.962,287.464 122.629,290.297 125.5,293C 123.5,293.667 121.5,293.667 119.5,293C 114.333,287.833 109.167,282.667 104,277.5C 103.51,276.207 103.343,274.873 103.5,273.5 Z"/></g>
<g><path style="opacity:1" fill="#caccc5" d="M 11.5,283.5 C 12.8333,283.5 13.5,284.167 13.5,285.5C 12.8333,285.833 12.1667,286.167 11.5,286.5C 10.5,286.833 9.83333,287.5 9.5,288.5C 6.9528,289.934 4.61947,291.6 2.5,293.5C 2.5,293.833 2.5,294.167 2.5,294.5C 0.971888,294.483 0.471888,293.816 1,292.5C 4.66676,289.664 8.16676,286.664 11.5,283.5 Z"/></g>
<g><path style="opacity:1" fill="#c9ec97" d="M 46.5,284.5 C 48.9635,286.461 51.2968,288.628 53.5,291C 54.7932,291.49 56.1266,291.657 57.5,291.5C 58.7562,291.461 59.7562,291.961 60.5,293C 58.1152,293.556 55.7819,293.39 53.5,292.5C 50.4275,290.431 48.0941,287.764 46.5,284.5 Z"/></g>
<g><path style="opacity:1" fill="#a0e442" d="M 30.5,292.5 C 29.8333,292.5 29.5,292.833 29.5,293.5C 29.1667,293.5 28.8333,293.5 28.5,293.5C 25.8333,293.5 23.1667,293.5 20.5,293.5C 20.3398,291.801 20.5065,290.134 21,288.5C 22.5185,287.837 23.6851,286.837 24.5,285.5C 27.508,284.58 30.3413,283.246 33,281.5C 33.6667,284.5 33.6667,287.5 33,290.5C 32.0053,291.066 31.172,291.733 30.5,292.5 Z"/></g>
<g><path style="opacity:1" fill="#72e041" d="M 105.5,293.5 C 101.537,289.036 97.3702,284.702 93,280.5C 92.3123,279.668 92.479,279.002 93.5,278.5C 95.7293,277.037 98.0627,276.203 100.5,276C 106.167,281.667 111.833,287.333 117.5,293C 113.514,293.499 109.514,293.666 105.5,293.5 Z"/></g>
<g><path style="opacity:1" fill="#9fe341" d="M 9.5,288.5 C 11.2959,289.793 12.9625,291.293 14.5,293C 10.5138,293.499 6.51383,293.666 2.5,293.5C 4.61947,291.6 6.9528,289.934 9.5,288.5 Z"/></g>
<g><path style="opacity:1" fill="#a3de52" d="M 61.5,289.5 C 63.1765,290.183 63.8432,291.517 63.5,293.5C 61.2381,292.655 60.5714,291.322 61.5,289.5 Z"/></g>
<g><path style="opacity:1" fill="#a5e54e" d="M 38.5,292.5 C 36.3926,293.468 34.0593,293.802 31.5,293.5C 33.1436,292.684 34.3103,291.35 35,289.5C 36.0391,290.71 37.2058,291.71 38.5,292.5 Z"/></g>
<g><path style="opacity:1" fill="#c3d7a5" d="M 18.5,283.5 C 18.4176,285.252 19.2509,286.252 21,286.5C 22.1385,286.011 23.3052,285.678 24.5,285.5C 23.6851,286.837 22.5185,287.837 21,288.5C 20.5065,290.134 20.3398,291.801 20.5,293.5C 23.1667,293.5 25.8333,293.5 28.5,293.5C 20.0161,294.493 11.3494,294.826 2.5,294.5C 2.5,294.167 2.5,293.833 2.5,293.5C 6.51383,293.666 10.5138,293.499 14.5,293C 12.9625,291.293 11.2959,289.793 9.5,288.5C 9.83333,287.5 10.5,286.833 11.5,286.5C 12.9382,290.274 15.6049,292.607 19.5,293.5C 20.6605,288.825 18.9939,286.159 14.5,285.5C 15.6715,284.655 17.0048,283.989 18.5,283.5 Z"/></g>
<g><path style="opacity:1" fill="#becbac" d="M 43.5,272.5 C 47.9018,278.409 52.9018,283.909 58.5,289C 59.448,289.483 60.448,289.649 61.5,289.5C 60.5714,291.322 61.2381,292.655 63.5,293.5C 63.8333,293.5 64.1667,293.5 64.5,293.5C 70.1667,293.5 75.8333,293.5 81.5,293.5C 81.5,293.833 81.5,294.167 81.5,294.5C 63.8447,295.479 46.5114,295.146 29.5,293.5C 29.5,292.833 29.8333,292.5 30.5,292.5C 30.5,293.167 30.8333,293.5 31.5,293.5C 34.0593,293.802 36.3926,293.468 38.5,292.5C 38.8333,292.5 39.1667,292.5 39.5,292.5C 44.1667,293.833 48.8333,293.833 53.5,292.5C 55.7819,293.39 58.1152,293.556 60.5,293C 59.7562,291.961 58.7562,291.461 57.5,291.5C 52.8333,284.833 47.1667,279.167 40.5,274.5C 40.1667,274.5 39.8333,274.5 39.5,274.5C 40.5137,273.326 41.847,272.66 43.5,272.5 Z"/></g>
<g><path style="opacity:1" fill="#9c9c9b" d="M 88.5,290.5 C 89.1667,290.5 89.8333,290.5 90.5,290.5C 90.8333,291.5 91.5,292.167 92.5,292.5C 89.3157,294.414 85.649,295.08 81.5,294.5C 81.5,294.167 81.5,293.833 81.5,293.5C 84.4887,292.365 87.4887,292.198 90.5,293C 89.6195,292.292 88.9528,291.458 88.5,290.5 Z"/></g>
</svg>
